<?xml version="1.0" encoding="UTF-8"?>
<svg id="Layer_2" data-name="Layer 2" xmlns="http://www.w3.org/2000/svg" viewBox="0 0 147.18 145.88">
  <defs>
    <style>
      .cls-1 {
        fill: #abb2fa;
      }
    </style>
  </defs>
  <g id="Layer_1-2" data-name="Layer 1">
    <path id="Icon_weather-stars" data-name="Icon weather-stars" class="cls-1" d="m0,91.32c4.8-.15,9.34-2.22,12.61-5.73,3.38-3.41,5.25-8.04,5.2-12.84-.08,4.79,1.76,9.42,5.12,12.84,3.27,3.52,7.81,5.58,12.61,5.73-4.8.15-9.34,2.22-12.61,5.73-3.36,3.42-5.2,8.05-5.12,12.84,0-4.97-1.68-9.25-5.2-12.84-3.27-3.51-7.81-5.58-12.61-5.73Zm17.81-55.02c9.63-.46,17.81-4.2,24.53-11.23,6.72-7.03,10.09-15.36,10.09-25.07,0,9.71,3.36,18.03,10.09,25.07,6.72,7.03,14.9,10.7,24.61,11.23-6.21.24-12.24,2.11-17.5,5.43-5.25,3.27-9.59,7.82-12.61,13.22-3.05,5.44-4.63,11.57-4.58,17.81,0-9.71-3.36-18.11-10.09-25.14-6.72-7.11-14.9-10.85-24.53-11.31Zm25.37,82.3c7.26-.31,13.45-3.13,18.49-8.41s7.57-11.54,7.57-18.88c0,7.34,2.52,13.6,7.57,18.88s11.16,8.1,18.42,8.41c-7.26.31-13.37,3.13-18.42,8.41s-7.57,11.54-7.57,18.88c0-7.34-2.52-13.6-7.57-18.88-5.12-5.27-11.23-8.02-18.49-8.4h0Zm52.04-36.22c7.26-.31,13.37-3.13,18.42-8.41s7.49-11.54,7.49-18.95c0,7.34,2.52,13.6,7.57,18.88,5.04,5.27,11.23,8.1,18.49,8.41-7.26.31-13.45,3.13-18.49,8.41s-7.57,11.54-7.57,18.88c0-7.34-2.52-13.6-7.49-18.88-5.04-5.2-11.16-8.02-18.42-8.33Z"/>
  </g>
</svg>