<?xml version="1.0" encoding="UTF-8"?>
<svg id="Layer_1" data-name="Layer 1" xmlns="http://www.w3.org/2000/svg" width="146.04" height="144.95" viewBox="0 0 146.04 144.95">
  <defs>
    <style>
      .cls-1 {
        fill: #abb2fa;
      }
    </style>
  </defs>
  <path id="Icon_weather-stars" data-name="Icon weather-stars" class="cls-1" d="m0,90.74c4.76-.15,9.27-2.2,12.51-5.69,3.35-3.39,5.21-7.99,5.16-12.76-.08,4.76,1.75,9.36,5.08,12.76,3.25,3.49,7.75,5.54,12.51,5.69-4.76.15-9.27,2.2-12.51,5.69-3.33,3.4-5.16,7.99-5.08,12.76,0-4.94-1.67-9.19-5.16-12.76-3.25-3.49-7.75-5.54-12.51-5.69Zm17.67-54.67c9.55-.46,17.67-4.18,24.34-11.16,6.67-6.99,10.01-15.26,10.01-24.9,0,9.64,3.34,17.92,10.01,24.9,6.67,6.99,14.79,10.63,24.42,11.16-6.16.24-12.15,2.1-17.36,5.39-5.21,3.25-9.51,7.77-12.51,13.14-3.02,5.4-4.59,11.5-4.55,17.69,0-9.64-3.34-17.99-10.01-24.98-6.67-7.06-14.79-10.78-24.34-11.24Zm25.17,81.77c7.2-.3,13.35-3.11,18.35-8.35s7.51-11.47,7.51-18.75c0,7.29,2.5,13.52,7.51,18.75s11.07,8.05,18.27,8.35c-7.2.3-13.27,3.11-18.27,8.35s-7.51,11.47-7.51,18.75c0-7.29-2.5-13.52-7.51-18.75-5.08-5.24-11.15-7.97-18.35-8.35h0Zm51.64-35.99c7.2-.3,13.27-3.11,18.27-8.35s7.43-11.47,7.43-18.83c0,7.29,2.5,13.52,7.51,18.75,5,5.24,11.15,8.05,18.35,8.35-7.2.3-13.35,3.11-18.35,8.35s-7.51,11.47-7.51,18.75c0-7.29-2.5-13.52-7.43-18.75-5-5.16-11.07-7.97-18.27-8.28Z"/>
</svg>