<?xml version="1.0" encoding="UTF-8"?>
<svg id="Layer_2" data-name="Layer 2" xmlns="http://www.w3.org/2000/svg" viewBox="0 0 104.62 104.62">
  <defs>
    <style>
      .cls-1 {
        fill: #abb2fa;
      }
    </style>
  </defs>
  <g id="Layer_1-2" data-name="Layer 1">
    <path id="Icon_awesome-wine-bottle" data-name="Icon awesome-wine-bottle" class="cls-1" d="m103.66,14.83L89.79.96c-1.28-1.28-3.35-1.28-4.62,0h0s-4.63,4.62-4.63,4.62c-1.28,1.28-1.28,3.35,0,4.62,0,0,0,0,0,0l-15.67,15.67c-9.8-4.16-21.15-1.96-28.68,5.56L3.83,63.8c-5.11,5.11-5.11,13.39,0,18.49l18.49,18.49c5.11,5.11,13.39,5.11,18.49,0l32.36-32.36c7.52-7.53,9.73-18.88,5.56-28.68l15.67-15.66c1.28,1.28,3.35,1.28,4.62,0,0,0,0,0,0,0l4.62-4.62c1.28-1.28,1.28-3.35,0-4.62,0,0,0,0,0,0ZM36.62,86.49l-18.49-18.49,24.94-24.94,18.5,18.5-24.94,24.94Z"/>
  </g>
</svg>