<?xml version="1.0" encoding="UTF-8"?>
<svg id="Layer_1" data-name="Layer 1" xmlns="http://www.w3.org/2000/svg" width="146" height="146" viewBox="0 0 146 146">
  <defs>
    <style>
      .cls-1 {
        fill: #abb2fa;
      }
    </style>
  </defs>
  <path id="Icon_awesome-wine-bottle" data-name="Icon awesome-wine-bottle" class="cls-1" d="m144.66,20.69L125.31,1.34c-1.78-1.78-4.67-1.78-6.45,0h0s-6.45,6.45-6.45,6.45c-1.78,1.78-1.78,4.67,0,6.45,0,0,0,0,0,0l-21.86,21.86c-13.68-5.81-29.51-2.74-40.03,7.76L5.34,89.03c-7.13,7.13-7.13,18.68,0,25.81l25.81,25.81c7.13,7.13,18.68,7.13,25.81,0l45.17-45.17c10.5-10.52,13.57-26.35,7.76-40.03l21.86-21.86c1.78,1.78,4.67,1.78,6.45,0,0,0,0,0,0,0l6.45-6.45c1.78-1.78,1.78-4.67,0-6.45,0,0,0,0,0,0ZM51.1,120.7l-25.81-25.81,34.8-34.8,25.81,25.81-34.8,34.8Z"/>
</svg>