<?xml version="1.0" encoding="UTF-8"?>
<svg id="Layer_1" data-name="Layer 1" xmlns="http://www.w3.org/2000/svg" width="127.69" height="145.93" viewBox="0 0 127.69 145.93">
  <defs>
    <style>
      .cls-1 {
        fill: #abb2fa;
      }
    </style>
  </defs>
  <path id="Icon_awesome-apple-alt" data-name="Icon awesome-apple-alt" class="cls-1" d="m100,36.77c7.4,1.33,13.47,5.32,18.22,11.97,4.18,5.89,7.02,13.3,8.54,22.23,1.33,8.12,1.23,16.42-.28,24.51-2.28,13.49-6.83,24.8-13.66,33.92-8.16,11.02-18.41,16.53-30.74,16.53-3.5-.13-6.92-1.11-9.96-2.85-5.08-3.04-11.43-3.04-16.51,0-3.04,1.74-6.46,2.72-9.96,2.85-12.34,0-22.59-5.51-30.74-16.53-6.83-9.12-11.38-20.43-13.66-33.92-1.52-8.09-1.61-16.39-.28-24.51,1.52-8.93,4.36-16.34,8.54-22.23,4.75-6.65,10.82-10.64,18.22-11.97,4.55-.76,10.82-.1,18.79,1.99,6.04,1.59,11.87,3.88,17.37,6.84,5.5-2.96,11.33-5.25,17.37-6.84,7.97-2.09,14.24-2.75,18.79-1.99h0Zm-15.66-11.68c-3.01,2.65-6.63,4.51-10.53,5.42-3.23.98-6.59,1.46-9.96,1.42l-4.27-.28c-.38-3.03-.38-6.09,0-9.12.76-6.84,2.94-12.07,6.55-15.68,3.01-2.65,6.63-4.51,10.53-5.41C79.88.45,83.24-.03,86.62,0l4.27.28.28,4.28c.03,3.38-.45,6.74-1.42,9.98-.9,3.91-2.76,7.54-5.41,10.55h0Z"/>
</svg>