<?xml version="1.0" encoding="UTF-8"?>
<svg id="Layer_2" data-name="Layer 2" xmlns="http://www.w3.org/2000/svg" viewBox="0 0 68.75 78.57">
  <defs>
    <style>
      .cls-1 {
        fill: #abb2fa;
      }
    </style>
  </defs>
  <g id="Layer_1-2" data-name="Layer 1">
    <path id="Icon_awesome-apple-alt" data-name="Icon awesome-apple-alt" class="cls-1" d="m53.84,19.8c3.99.72,7.25,2.87,9.81,6.45,2.25,3.17,3.78,7.16,4.6,11.97.72,4.37.66,8.84-.15,13.2-1.23,7.26-3.68,13.35-7.36,18.26-4.4,5.93-9.91,8.9-16.55,8.9-1.89-.07-3.73-.6-5.37-1.53-2.74-1.64-6.15-1.64-8.89,0-1.64.94-3.48,1.47-5.37,1.53-6.64,0-12.16-2.97-16.55-8.9-3.68-4.91-6.13-11-7.36-18.26-.82-4.36-.87-8.82-.15-13.2.82-4.81,2.35-8.8,4.6-11.97,2.56-3.58,5.83-5.73,9.81-6.45,2.45-.41,5.82-.05,10.12,1.07,3.25.85,6.39,2.09,9.35,3.68,2.96-1.59,6.1-2.83,9.35-3.68,4.29-1.12,7.67-1.48,10.12-1.07h0Zm-8.43-6.29c-1.62,1.43-3.57,2.43-5.67,2.92-1.74.53-3.55.79-5.37.77l-2.3-.15c-.2-1.63-.2-3.28,0-4.91.41-3.68,1.58-6.5,3.53-8.44,1.62-1.43,3.57-2.43,5.67-2.92C43.01.24,44.82-.02,46.64,0l2.3.15.15,2.3c.02,1.82-.24,3.63-.77,5.37-.48,2.11-1.48,4.06-2.91,5.68h0Z"/>
  </g>
</svg>