<?xml version="1.0" encoding="UTF-8"?>
<svg id="Layer_2" data-name="Layer 2" xmlns="http://www.w3.org/2000/svg" viewBox="0 0 109.64 97.45">
  <defs>
    <style>
      .cls-1 {
        fill: #abb2fa;
      }
    </style>
  </defs>
  <g id="Layer_1-2" data-name="Layer 1">
    <path id="Icon_awesome-hand-holding-heart" data-name="Icon awesome-hand-holding-heart" class="cls-1" d="m52.4,47.68c1.25,1.34,3.35,1.42,4.69.17.06-.05.11-.11.17-.17l20.73-21.74c5.96-6.36,5.63-16.34-.72-22.3-.11-.11-.23-.21-.34-.31-5.86-5.08-14.6-4.17-19.97,1.47l-2.13,2.23-2.11-2.21c-5.37-5.65-14.1-6.57-19.97-1.48-6.53,5.78-7.14,15.76-1.35,22.29.09.11.19.21.29.32l20.72,21.74Zm55.19,14.77c-2.25-2.04-5.75-1.9-8.11,0l-17.58,14.07c-2.16,1.73-4.85,2.67-7.61,2.66h-22.52c-1.68,0-3.05-1.36-3.05-3.05s1.36-3.05,3.05-3.05h14.9c3.03,0,5.84-2.07,6.34-5.06.56-3.32-1.67-6.47-4.99-7.03-.34-.06-.68-.09-1.03-.09h-30.45c-5.14,0-10.12,1.77-14.1,5l-8.85,7.18H3.05c-1.68,0-3.04,1.37-3.05,3.05v18.27c0,1.68,1.36,3.04,3.05,3.05h67.91c2.77,0,5.45-.94,7.61-2.66l28.78-23.03c2.63-2.1,3.06-5.93.96-8.56-.22-.27-.45-.52-.71-.75h0Z"/>
  </g>
</svg>