<?xml version="1.0" encoding="UTF-8"?>
<svg id="Layer_1" data-name="Layer 1" xmlns="http://www.w3.org/2000/svg" width="145.75" height="147.9" viewBox="0 0 145.75 147.9">
  <defs>
    <style>
      .cls-1 {
        fill: #abb2fa;
      }
    </style>
  </defs>
  <path id="Icon_awesome-hand-holding-heart" data-name="Icon awesome-hand-holding-heart" class="cls-1" d="m69.65,72.36c1.66,2.03,4.45,2.15,6.23.25.08-.08.15-.17.22-.25l27.56-32.99c7.92-9.65,7.49-24.8-.96-33.84-.15-.16-.3-.32-.45-.47-7.79-7.71-19.41-6.33-26.54,2.22l-2.83,3.38-2.81-3.35c-7.13-8.58-18.75-9.97-26.54-2.25-8.68,8.78-9.49,23.92-1.8,33.83.13.16.25.32.38.48l27.55,32.99Zm73.37,22.41c-2.99-3.09-7.64-2.89-10.78,0l-23.38,21.35c-2.87,2.63-6.44,4.06-10.12,4.04h-29.93c-2.24,0-4.05-2.07-4.05-4.62s1.81-4.62,4.05-4.62h19.81c4.02,0,7.77-3.15,8.43-7.68.75-5.04-2.22-9.82-6.63-10.67-.45-.09-.91-.13-1.36-.13h-40.48c-6.83,0-13.45,2.68-18.75,7.59l-11.76,10.89H4.05c-2.23,0-4.04,2.07-4.05,4.62v27.73c0,2.55,1.81,4.62,4.05,4.62h90.28c3.68,0,7.25-1.42,10.12-4.04l38.26-34.95c3.49-3.18,4.07-9,1.28-12.98-.29-.41-.6-.79-.95-1.14h0Z"/>
</svg>