<?xml version="1.0" encoding="UTF-8"?>
<svg id="Layer_1" data-name="Layer 1" xmlns="http://www.w3.org/2000/svg" width="148.28" height="135.9" viewBox="0 0 148.28 135.9">
  <defs>
    <style>
      .cls-1 {
        fill: #abb2fa;
      }
    </style>
  </defs>
  <path id="Icon_awesome-hand-holding-heart" data-name="Icon awesome-hand-holding-heart" class="cls-1" d="m70.86,66.49c1.69,1.87,4.53,1.97,6.34.23.08-.07.15-.15.23-.23l28.03-30.31c8.06-8.87,7.62-22.79-.98-31.1-.15-.15-.31-.29-.46-.43-7.93-7.09-19.74-5.81-27,2.04l-2.88,3.1-2.86-3.08c-7.26-7.89-19.07-9.16-27-2.07-8.83,8.06-9.65,21.98-1.83,31.09.13.15.26.3.39.44l28.03,30.31Zm74.65,20.6c-3.04-2.84-7.77-2.65-10.97,0l-23.78,19.62c-2.92,2.41-6.55,3.73-10.3,3.72h-30.45c-2.27,0-4.12-1.9-4.12-4.25s1.84-4.25,4.12-4.25h20.16c4.09,0,7.9-2.89,8.57-7.06.76-4.63-2.26-9.02-6.75-9.81-.46-.08-.92-.12-1.39-.12h-41.18c-6.95,0-13.68,2.46-19.08,6.98l-11.97,10.01H4.12c-2.27,0-4.11,1.9-4.12,4.25v25.48c0,2.34,1.85,4.24,4.12,4.25h91.84c3.74,0,7.37-1.31,10.3-3.72l38.92-32.11c3.55-2.92,4.14-8.27,1.3-11.93-.29-.38-.61-.73-.96-1.05h0Z"/>
</svg>