<?xml version="1.0" encoding="UTF-8"?>
<svg id="Layer_1" data-name="Layer 1" xmlns="http://www.w3.org/2000/svg" width="91.3" height="95.51" viewBox="0 0 91.3 95.51">
  <defs>
    <style>
      .cls-1 {
        fill: #fcfcfc;
      }
    </style>
  </defs>
  <ellipse class="cls-1" cx="22.56" cy="14.05" rx="6.41" ry="5.79"/>
  <ellipse class="cls-1" cx="38.71" cy="10.62" rx="7.11" ry="6.41"/>
  <circle class="cls-1" cx="55.66" cy="14.4" r="6.15"/>
  <circle class="cls-1" cx="66.19" cy="21.42" r="4.39"/>
  <ellipse class="cls-1" cx="71.2" cy="31.08" rx="3.42" ry="2.81"/>
  <circle class="cls-1" cx="73.13" cy="39.42" r="2.55"/>
  <circle class="cls-1" cx="77.52" cy="52.41" r="6.94"/>
  <ellipse class="cls-1" cx="84.36" cy="37.92" rx="6.58" ry="5.97"/>
  <circle class="cls-1" cx="79.54" cy="24.05" r="4.92"/>
  <circle class="cls-1" cx="73.22" cy="10.89" r="4.56"/>
  <circle class="cls-1" cx="64.79" cy="5.27" r="2.98"/>
  <circle class="cls-1" cx="56.54" cy="2.63" r="2.63"/>
  <ellipse class="cls-1" cx="12.99" cy="24.23" rx="4.39" ry="3.69"/>
  <circle class="cls-1" cx="6.5" cy="32.31" r="3.34"/>
  <circle class="cls-1" cx="2.98" cy="40.91" r="2.98"/>
  <circle class="cls-1" cx="14.4" cy="41.44" r="4.56"/>
  <circle class="cls-1" cx="23.88" cy="31.95" r="4.92"/>
  <circle class="cls-1" cx="30.99" cy="23.79" r="3.25"/>
  <circle class="cls-1" cx="39.33" cy="21.77" r="1.93"/>
  <circle class="cls-1" cx="10.89" cy="55.66" r="6.5"/>
  <circle class="cls-1" cx="14.92" cy="71.64" r="7.73"/>
  <circle class="cls-1" cx="20.37" cy="83.57" r="4.21"/>
  <circle class="cls-1" cx="29.85" cy="87.79" r="2.98"/>
  <circle class="cls-1" cx="38.1" cy="89.72" r="3.16"/>
  <circle class="cls-1" cx="54.34" cy="87" r="8.52"/>
  <circle class="cls-1" cx="71.9" cy="79.8" r="5"/>
  <circle class="cls-1" cx="81.38" cy="72.95" r="4.48"/>
  <circle class="cls-1" cx="87.61" cy="64.44" r="3.34"/>
  <circle class="cls-1" cx="88.58" cy="53.64" r="2.72"/>
  <circle class="cls-1" cx="71.99" cy="63.56" r="4.21"/>
  <circle class="cls-1" cx="62.94" cy="71.55" r="3.77"/>
  <circle class="cls-1" cx="53.55" cy="73.22" r="2.98"/>
  <circle class="cls-1" cx="39.5" cy="78.31" r="5.27"/>
  <circle class="cls-1" cx="30.55" cy="70.58" r="3.69"/>
  <circle class="cls-1" cx="25.55" cy="64" r="2.9"/>
  <circle class="cls-1" cx="22.82" cy="56.89" r="2.46"/>
</svg>